<svg width="20" height="21" viewBox="0 0 20 21" fill="none" xmlns="http://www.w3.org/2000/svg">
<path d="M18.289 8.14916C18.2366 7.99488 18.1402 7.85932 18.0117 7.75921C17.8831 7.6591 17.7281 7.59883 17.5657 7.58583L12.8149 7.20833L10.759 2.6575C10.6936 2.51092 10.5871 2.38643 10.4524 2.29904C10.3177 2.21166 10.1607 2.16511 10.0001 2.16502C9.8396 2.16494 9.68247 2.21131 9.54771 2.29855C9.41296 2.38579 9.30633 2.51016 9.24069 2.65666L7.18486 7.20833L2.43403 7.58583C2.27441 7.59848 2.12181 7.65684 1.99449 7.75394C1.86717 7.85104 1.77052 7.98276 1.7161 8.13335C1.66169 8.28395 1.65181 8.44702 1.68765 8.60308C1.72349 8.75914 1.80353 8.90157 1.91819 9.01333L5.42903 12.4358L4.18736 17.8125C4.14966 17.9752 4.16174 18.1456 4.22204 18.3014C4.28234 18.4572 4.38808 18.5912 4.52553 18.6862C4.66298 18.7812 4.82579 18.8326 4.99285 18.8339C5.1599 18.8351 5.32348 18.7862 5.46236 18.6933L9.99986 15.6683L14.5374 18.6933C14.6793 18.7876 14.8467 18.8361 15.0171 18.8324C15.1874 18.8286 15.3525 18.7728 15.4902 18.6724C15.6279 18.5721 15.7315 18.4319 15.7872 18.2709C15.8428 18.1099 15.8478 17.9356 15.8015 17.7717L14.2774 12.4383L18.0574 9.03666C18.3049 8.81333 18.3957 8.465 18.289 8.14916Z" fill="#FCC54A"/>
</svg>
