<svg width="80" height="80" viewBox="0 0 80 80" fill="none" xmlns="http://www.w3.org/2000/svg">
<path d="M17.5 70C16.837 70 16.2011 69.7366 15.7322 69.2678C15.2634 68.7989 15 68.163 15 67.5V12.5C15.0001 12.0656 15.1134 11.6387 15.3287 11.2613C15.544 10.884 15.8539 10.5693 16.2279 10.3483C16.6019 10.1272 17.027 10.0074 17.4614 10.0007C17.8957 9.99401 18.3244 10.1006 18.705 10.31L68.705 37.81C69.097 38.0258 69.4238 38.3429 69.6515 38.7281C69.8791 39.1133 69.9992 39.5526 69.9992 40C69.9992 40.4475 69.8791 40.8867 69.6515 41.2719C69.4238 41.6571 69.097 41.9742 68.705 42.19L18.705 69.69C18.3359 69.8932 17.9214 69.9999 17.5 70Z" fill="white"/>
</svg>
