<svg width="24" height="24" viewBox="0 0 24 24" fill="none" xmlns="http://www.w3.org/2000/svg">
<path d="M4 4C3.46957 4 2.96086 4.21071 2.58579 4.58579C2.21071 4.96086 2 5.46957 2 6V13C2 13.5304 2.21071 14.0391 2.58579 14.4142C2.96086 14.7893 3.46957 15 4 15H15C15.5304 15 16.0391 14.7893 16.4142 14.4142C16.7893 14.0391 17 13.5304 17 13V6C17 5.46957 16.7893 4.96086 16.4142 4.58579C16.0391 4.21071 15.5304 4 15 4H4ZM9.5 6.1C9.59278 6.1 9.68373 6.12582 9.76267 6.17456C9.84161 6.22331 9.90543 6.29305 9.947 6.376L10.827 8.137L12.562 8.354C12.6586 8.36614 12.7496 8.40625 12.8238 8.46939C12.898 8.53253 12.9521 8.61596 12.9795 8.70943C13.0069 8.8029 13.0064 8.90233 12.978 8.99552C12.9497 9.08871 12.8948 9.1716 12.82 9.234L11.554 10.289L11.988 12.242C12.0092 12.3382 12.0016 12.4384 11.9661 12.5303C11.9306 12.6221 11.8687 12.7014 11.7883 12.7582C11.7079 12.815 11.6125 12.8468 11.514 12.8497C11.4156 12.8525 11.3185 12.8261 11.235 12.774L9.5 11.69L7.765 12.774C7.68147 12.8261 7.5844 12.8525 7.48598 12.8497C7.38755 12.8468 7.29214 12.815 7.21172 12.7582C7.13129 12.7014 7.06944 12.6221 7.03391 12.5303C6.99838 12.4384 6.99076 12.3382 7.012 12.242L7.446 10.289L6.18 9.234C6.10522 9.1716 6.05029 9.08871 6.02196 8.99552C5.99363 8.90233 5.99314 8.8029 6.02054 8.70943C6.04794 8.61596 6.10205 8.53253 6.17621 8.46939C6.25037 8.40625 6.34136 8.36614 6.438 8.354L8.172 8.137L9.052 6.377C9.0935 6.29371 9.15742 6.22366 9.23657 6.17473C9.31571 6.12579 9.40695 6.09991 9.5 6.1ZM6.5 17.5C6.05652 17.5001 5.62558 17.3528 5.27495 17.0813C4.92431 16.8098 4.67387 16.4294 4.563 16H15.5C16.163 16 16.7989 15.7366 17.2678 15.2678C17.7366 14.7989 18 14.163 18 13.5V6.563C18.4294 6.67387 18.8098 6.92431 19.0813 7.27495C19.3528 7.62558 19.5001 8.05652 19.5 8.5V13.5C19.5 14.5609 19.0786 15.5783 18.3284 16.3284C17.5783 17.0786 16.5609 17.5 15.5 17.5H6.5ZM9 20C8.55652 20.0001 8.12558 19.8528 7.77495 19.5813C7.42431 19.3098 7.17387 18.9294 7.063 18.5H16.25C17.3772 18.5 18.4582 18.0522 19.2552 17.2552C20.0522 16.4582 20.5 15.3772 20.5 14.25V9.063C20.9294 9.17387 21.3098 9.42431 21.5813 9.77495C21.8528 10.1256 22.0001 10.5565 22 11V14.25C22 15.775 21.3942 17.2375 20.3159 18.3159C19.2375 19.3942 17.775 20 16.25 20H9Z" fill="white"/>
</svg>
