<svg width="17" height="16" viewBox="0 0 17 16" fill="none" xmlns="http://www.w3.org/2000/svg">
<path d="M12.0564 0.234401C11.9822 0.159967 11.8941 0.100937 11.797 0.0607083C11.6999 0.0204801 11.5958 -0.000151559 11.4908 8.38139e-07H5.09077C4.9857 -0.000151559 4.88163 0.0204801 4.78456 0.0607083C4.68749 0.100937 4.59934 0.159967 4.52517 0.234401L0.525172 4.2344C0.450738 4.30857 0.391708 4.39672 0.35148 4.49379C0.311252 4.59086 0.29062 4.69493 0.290772 4.8V11.2C0.290772 11.4128 0.374772 11.616 0.525172 11.7656L4.52517 15.7656C4.59934 15.84 4.68749 15.8991 4.78456 15.9393C4.88163 15.9795 4.9857 16.0002 5.09077 16H11.4908C11.7036 16 11.9068 15.916 12.0564 15.7656L16.0564 11.7656C16.1308 11.6914 16.1898 11.6033 16.2301 11.5062C16.2703 11.4091 16.2909 11.3051 16.2908 11.2V4.8C16.2909 4.69493 16.2703 4.59086 16.2301 4.49379C16.1898 4.39672 16.1308 4.30857 16.0564 4.2344L12.0564 0.234401ZM9.09077 12H7.49077V10.4H9.09077V12ZM9.09077 8.8H7.49077V4H9.09077V8.8Z" fill="white" fill-opacity="0.5"/>
</svg>
