<svg width="16" height="16" viewBox="0 0 16 16" fill="none" xmlns="http://www.w3.org/2000/svg">
<path fill-rule="evenodd" clip-rule="evenodd" d="M5.33333 2.66666H10.6667V1.33333H12V2.66666H12.6667C13.0203 2.66666 13.3594 2.80714 13.6095 3.05719C13.8595 3.30723 14 3.64637 14 3.99999V13.3333C14 13.687 13.8595 14.0261 13.6095 14.2761C13.3594 14.5262 13.0203 14.6667 12.6667 14.6667H3.33333C2.97971 14.6667 2.64057 14.5262 2.39052 14.2761C2.14048 14.0261 2 13.687 2 13.3333V3.99999C2 3.64637 2.14048 3.30723 2.39052 3.05719C2.64057 2.80714 2.97971 2.66666 3.33333 2.66666H4V1.33333H5.33333V2.66666ZM3.33333 5.33333V13.3333H12.6667V5.33333H3.33333ZM4.66667 7.33333H6V8.66666H4.66667V7.33333ZM7.33333 7.33333H8.66667V8.66666H7.33333V7.33333ZM10 7.33333H11.3333V8.66666H10V7.33333ZM10 10H11.3333V11.3333H10V10ZM7.33333 10H8.66667V11.3333H7.33333V10ZM4.66667 10H6V11.3333H4.66667V10Z" fill="white"/>
</svg>
