<svg width="12" height="12" viewBox="0 0 12 12" fill="none" xmlns="http://www.w3.org/2000/svg">
<path d="M3.47704 10.7805C3.33644 10.6398 3.25745 10.4491 3.25745 10.2502C3.25745 10.0513 3.33644 9.86062 3.47704 9.71997L7.18954 6.00747L3.47704 2.29497C3.34042 2.15352 3.26482 1.96407 3.26653 1.76742C3.26824 1.57077 3.34712 1.38266 3.48617 1.24361C3.62523 1.10455 3.81334 1.02568 4.00999 1.02397C4.20663 1.02226 4.39609 1.09785 4.53754 1.23447L8.78029 5.47722C8.92089 5.61787 8.99988 5.8086 8.99988 6.00747C8.99988 6.20634 8.92089 6.39708 8.78029 6.53772L4.53754 10.7805C4.39689 10.9211 4.20616 11.0001 4.00729 11.0001C3.80842 11.0001 3.61768 10.9211 3.47704 10.7805V10.7805Z" fill="white"/>
</svg>
