<svg width="24" height="25" viewBox="0 0 24 25" fill="none" xmlns="http://www.w3.org/2000/svg">
<path d="M23.643 5.66694C22.808 6.03694 21.911 6.28694 20.968 6.39994C21.941 5.81773 22.669 4.9014 23.016 3.82194C22.1019 4.36492 21.1014 4.74713 20.058 4.95194C19.3564 4.2028 18.4271 3.70626 17.4143 3.53941C16.4016 3.37256 15.3621 3.54473 14.4572 4.02919C13.5524 4.51365 12.8328 5.2833 12.4102 6.21864C11.9875 7.15398 11.8855 8.20269 12.12 9.20194C10.2677 9.10893 8.45564 8.62748 6.80144 7.78884C5.14723 6.9502 3.68785 5.7731 2.51801 4.33394C2.11801 5.02394 1.88801 5.82394 1.88801 6.67594C1.88757 7.44293 2.07644 8.19818 2.43789 8.87467C2.79934 9.55116 3.32217 10.128 3.96001 10.5539C3.22029 10.5304 2.49688 10.3305 1.85001 9.97094V10.0309C1.84994 11.1067 2.22204 12.1493 2.90319 12.9819C3.58434 13.8146 4.53258 14.3859 5.58701 14.5989C4.9008 14.7847 4.18135 14.812 3.48301 14.6789C3.78051 15.6045 4.36001 16.414 5.14038 16.9939C5.92075 17.5738 6.86293 17.8951 7.83501 17.9129C6.18484 19.2083 4.1469 19.911 2.04901 19.9079C1.67739 19.908 1.30609 19.8863 0.937012 19.8429C3.06649 21.2121 5.54535 21.9388 8.07701 21.9359C16.647 21.9359 21.332 14.8379 21.332 8.68194C21.332 8.48194 21.327 8.27993 21.318 8.07994C22.2293 7.42091 23.0159 6.60483 23.641 5.66994L23.643 5.66694Z" fill="#8B93A7"/>
</svg>
